<svg width="27" height="33" viewBox="0 0 27 33" fill="none" xmlns="http://www.w3.org/2000/svg">
<path d="M22.6957 17.0748C22.7276 14.5963 24.0587 12.251 26.1704 10.9528C24.8382 9.05024 22.6069 7.84398 20.2855 7.77135C17.8095 7.51146 15.4092 9.25294 14.1475 9.25294C12.8613 9.25294 10.9187 7.79715 8.82687 7.84019C6.10021 7.92828 3.55828 9.47851 2.2317 11.8623C-0.619915 16.7995 1.50713 24.0554 4.23874 28.0462C5.60543 30.0004 7.20269 32.1833 9.29267 32.1058C11.3378 32.021 12.1017 30.8017 14.5704 30.8017C17.0162 30.8017 17.7328 32.1058 19.8652 32.0566C22.0597 32.021 23.4424 30.0938 24.7612 28.1211C25.7431 26.7286 26.4987 25.1897 27 23.5613C24.421 22.4705 22.6987 19.8751 22.6957 17.0748Z" fill="#B2B2B2"/>
<path d="M18.6679 5.1468C19.8645 3.71036 20.454 1.86407 20.3113 0C18.4832 0.192006 16.7945 1.06571 15.5818 2.44704C14.3959 3.79666 13.7788 5.61047 13.8954 7.40329C15.7242 7.42212 17.522 6.5721 18.6679 5.1468Z" fill="#B2B2B2"/>
</svg>
