<svg width="27" height="30" viewBox="0 0 27 30" fill="none" xmlns="http://www.w3.org/2000/svg">
<path d="M0.588846 29.593L14.4883 15.1765L0.600491 0.785889C0.22955 1.00993 0 1.52869 0 2.20772V28.1849C0.0049749 28.8639 0.226223 29.3448 0.588846 29.593Z" fill="#B2B2B2"/>
<path d="M14.986 14.7787L19.1262 10.4839L2.26592 0.894779C1.98201 0.723682 1.65953 0.633308 1.33109 0.632812L14.9844 14.777L14.986 14.7787Z" fill="#B2B2B2"/>
<path d="M14.9866 15.5771L1.29004 29.7834C1.63381 29.7893 1.97242 29.6962 2.26812 29.5145L19.1617 19.8995L14.9866 15.5771Z" fill="#B2B2B2"/>
<path d="M25.2344 13.9636L19.6237 10.7666L15.3704 15.1786L19.6553 19.6181L25.2327 16.4298C26.4187 15.7525 26.4187 14.6374 25.2344 13.9636Z" fill="#B2B2B2"/>
</svg>
